<svg xmlns="http://www.w3.org/2000/svg" version="1.1" width="512px" height="512px" style="shape-rendering:geometricPrecision; text-rendering:geometricPrecision; image-rendering:optimizeQuality; fill-rule:evenodd; clip-rule:evenodd" xmlns:xlink="http://www.w3.org/1999/xlink">
<g><path style="opacity:0.983" fill="#000000" d="M 4.5 -0.5 C 14.5 -0.5 24.5 -0.5 34.5 -0.5 C 39.442 2.376 42.109 6.709 42.5 12.5 C 46.5 12.5 50.5 12.5 54.5 12.5 C 53.664 7.406 54.998 3.073 58.5 -0.5 C 189.833 -0.5 321.167 -0.5 452.5 -0.5 C 456.002 3.073 457.336 7.406 456.5 12.5 C 460.5 12.5 464.5 12.5 468.5 12.5 C 468.891 6.709 471.558 2.376 476.5 -0.5 C 486.5 -0.5 496.5 -0.5 506.5 -0.5 C 508.5 0.833 510.167 2.5 511.5 4.5 C 511.5 24.833 511.5 45.167 511.5 65.5 C 509.567 67.596 507.233 69.096 504.5 70 C 496.167 70.667 487.833 70.667 479.5 70 C 472.697 68.033 469.031 63.533 468.5 56.5 C 464.5 56.5 460.5 56.5 456.5 56.5 C 457.573 66.76 452.906 71.427 442.5 70.5 C 442.667 100.502 442.6 128.01 442.1 158.008 C 442.193 161.164 439.205 164.925 434.5 164.5 C 431.114 163.739 428.947 161.739 428 158.5 C 427.5 128.835 427.333 99.169 427.5 69.5 C 332.5 69.5 237.5 69.5 142.5 69.5 C 137.534 69.695 136.5 69.676 136.5 62.144 C 136.5 54.612 138.165 55.054 141.5 55 C 241.499 54.5 341.499 54.333 441.5 54.5 C 441.5 41.167 441.5 27.833 441.5 14.5 C 317.5 14.5 193.5 14.5 69.5 14.5 C 69.5 27.833 69.5 41.167 69.5 54.5 C 83.171 54.333 96.837 54.5 110.5 55 C 115.624 54.975 116.5 54.961 116.5 62.5 C 116.5 70.039 114.493 67.842 111.5 69 C 102.173 69.5 92.839 69.667 83.5 69.5 C 83.5 169.167 83.5 268.833 83.5 368.5 C 83.333 384.503 83.5 400.503 84 416.5 C 87.384 418.459 90.884 420.125 94.5 421.5 C 94.56 422.043 94.329 407.809 96.5 378.5 C 96.733 376.938 97.4 375.605 98.5 374.5 C 101.518 372.537 104.851 372.037 108.5 373 C 117.167 377 125.833 381 134.5 385 C 136.464 386.451 137.797 388.284 138.5 390.5 C 138.167 407.846 138.5 425.179 139.5 442.5 C 143.286 443.893 146.952 445.559 150.5 447.5 C 151.333 432.511 153.217 401.289 153.5 400.5 C 155.858 397.764 158.858 396.93 162.5 398 C 171.833 402.333 181.167 406.667 190.5 411 C 192.141 412.129 193.141 413.629 193.5 415.5 C 193.167 432.846 193.5 450.179 194.5 467.5 C 198.303 469.738 202.303 471.404 206.5 472.5 C 206.333 457.83 206.5 443.163 207 428.5 C 209.897 423.845 214.063 422.345 219.5 424 C 229.39 428.195 238.89 433.028 248 438.5 C 249.142 456.752 249.975 475.086 250.5 493.5 C 253.833 496.167 257.167 496.167 260.5 493.5 C 261.333 475.843 261.833 458.176 262 440.5 C 263.122 438.376 264.622 436.543 266.5 435 C 276.066 430.536 285.733 426.369 295.5 422.5 C 299.571 422.736 302.404 424.736 304 428.5 C 304.5 443.163 304.667 457.83 304.5 472.5 C 308.697 471.404 312.697 469.738 316.5 467.5 C 317.024 448.752 317.858 430.086 319 411.5 C 328.424 406.872 337.924 402.372 347.5 398 C 352.625 396.431 356.459 397.931 359 402.5 C 359.167 417.511 359.667 432.511 360.5 447.5 C 364.303 445.262 368.303 443.596 372.5 442.5 C 372.333 424.497 372.5 406.497 373 388.5 C 373.465 387.069 374.299 385.903 375.5 385 C 384.833 380.667 394.167 376.333 403.5 372 C 408.026 371.181 411.526 372.681 414 376.5 C 414.5 391.496 414.667 406.496 414.5 421.5 C 418.819 420.259 422.985 418.592 427 416.5 C 427.333 340.5 427.667 264.5 428 188.5 C 428.154 185.183 430.536 183.646 434.5 183.5 C 438.127 183.132 440.838 184.456 442 187.5 C 442.126 195.056 442.661 346.915 441 426.5 C 431.398 431.718 421.564 436.551 411.5 441 C 406.186 442.26 402.353 440.426 400 435.5 C 399.833 420.822 399.333 406.155 398.5 391.5 C 395.025 393.267 391.525 394.933 388 396.5 C 387.974 414.924 387.308 433.257 386 451.5 C 376.89 456.972 367.39 461.805 357.5 466 C 352.063 467.655 347.897 466.155 345 461.5 C 344.667 446.5 344.333 431.5 344 416.5 C 340.646 418.452 337.146 420.119 333.5 421.5 C 332.667 439.157 332.167 456.824 332 474.5 C 331.5 475.5 331 476.5 330.5 477.5 C 320.255 483.705 309.421 488.705 298 492.5 C 292.81 492.31 289.81 489.644 289 484.5 C 288.833 470.488 288.333 456.488 287.5 442.5 C 284.254 444.039 281.088 445.706 278 447.5 C 277.667 464.833 277.333 482.167 277 499.5 C 276.293 501.081 275.46 502.581 274.5 504 C 269.408 506.546 264.408 509.046 259.5 511.5 C 256.833 511.5 254.167 511.5 251.5 511.5 C 246.592 509.046 241.592 506.546 236.5 504 C 235.54 502.581 234.707 501.081 234 499.5 C 233.833 482.157 233.333 464.824 232.5 447.5 C 229.254 445.961 226.088 444.294 223 442.5 C 222.667 456.5 222.333 470.5 222 484.5 C 221.19 489.644 218.19 492.31 213 492.5 C 201.579 488.705 190.745 483.705 180.5 477.5 C 180 476.5 179.5 475.5 179 474.5 C 178.667 457.167 178.333 439.833 178 422.5 C 174.697 420.432 171.197 418.766 167.5 417.5 C 166.667 432.155 166.167 446.822 166 461.5 C 164.336 465.084 161.503 466.751 157.5 466.5 C 145.971 462.985 135.137 457.985 125 451.5 C 123.858 433.248 123.025 414.914 122.5 396.5 C 119.025 394.733 115.525 393.067 112 391.5 C 111.667 406.167 111.333 420.833 111 435.5 C 108.647 440.426 104.814 442.26 99.5 441 C 90.167 436.667 80.833 432.333 71.5 428 C 70.299 427.097 69.465 425.931 69 424.5 C 68.5 306.5 68.333 188.5 68.5 70.5 C 58.094 71.427 53.427 66.76 54.5 56.5 C 50.5 56.5 46.5 56.5 42.5 56.5 C 41.969 63.533 38.303 68.033 31.5 70 C 23.167 70.667 14.833 70.667 6.5 70 C 3.767 69.096 1.433 67.596 -0.5 65.5 C -0.5 45.167 -0.5 24.833 -0.5 4.5 C 0.833 2.5 2.5 0.833 4.5 -0.5 Z" /></g>
<g><path style="opacity:1" fill="#f67941" d="M 14.5,14.5 C 18.8333,14.5 23.1667,14.5 27.5,14.5C 27.5,27.8333 27.5,41.1667 27.5,54.5C 23.1667,54.5 18.8333,54.5 14.5,54.5C 14.5,41.1667 14.5,27.8333 14.5,14.5 Z" /></g>
<g><path style="opacity:1" fill="#3591bb" d="M 136.5 62.742 C 134.912 62.742 123.441 63.046 116.49 62.48 C 116.052 58.788 114.062 56.308 110.5 55 C 96.837 54.5 83.171 54.333 69.5 54.5 C 69.5 41.167 69.5 27.833 69.5 14.5 C 193.5 14.5 317.5 14.5 441.5 14.5 C 441.5 27.833 441.5 41.167 441.5 54.5 C 341.499 54.333 241.5 55 141.5 55 C 137.26 55.698 136.607 59.653 136.5 62.742 Z" /></g>
<g><path style="opacity:1" fill="#f67941" d="M 483.5,14.5 C 487.833,14.5 492.167,14.5 496.5,14.5C 496.5,27.8333 496.5,41.1667 496.5,54.5C 492.167,54.5 487.833,54.5 483.5,54.5C 483.5,41.1667 483.5,27.8333 483.5,14.5 Z" /></g>
<g><path style="opacity:1" fill="#fc692f" d="M 42.5,28.5 C 46.5,28.5 50.5,28.5 54.5,28.5C 54.5,32.5 54.5,36.5 54.5,40.5C 50.5,40.5 46.5,40.5 42.5,40.5C 42.5,36.5 42.5,32.5 42.5,28.5 Z" /></g>
<g><path style="opacity:1" fill="#fc692f" d="M 456.5,28.5 C 460.5,28.5 464.5,28.5 468.5,28.5C 468.5,32.5 468.5,36.5 468.5,40.5C 464.5,40.5 460.5,40.5 456.5,40.5C 456.5,36.5 456.5,32.5 456.5,28.5 Z" /></g>
<g><path style="opacity:1" fill="#0680ae" d="M 136.5 62.366 C 136.79 65.007 138.112 68.807 142.5 69.5 C 394.48 69.5 142.568 69.498 394.489 69.5 C 401.993 130.589 408.169 220.068 396.113 280.52 C 388.524 272.141 377.078 258.454 367 263.5 C 359.833 256.333 352.667 249.167 345.5 242 C 355.752 232.004 357.919 220.504 352 207.5 C 348.201 202.699 344.034 198.199 339.5 194 C 333.943 191.429 329.277 192.595 325.5 197.5 C 323.712 195.209 321.712 193.043 319.5 191 C 327.68 184.482 335.513 177.648 343 170.5 C 343.667 147.167 343.667 123.833 343 100.5 C 341.833 99.333 340.667 98.167 339.5 97 C 315.833 96.333 292.167 96.333 268.5 97 C 264.323 102.008 259.99 106.841 255.5 111.5 C 251.01 106.841 246.677 102.008 242.5 97 C 218.833 96.333 195.167 96.333 171.5 97 C 170 97.833 168.833 99 168 100.5 C 167.333 123.833 167.333 147.167 168 170.5 C 175.487 177.648 183.32 184.482 191.5 191 C 189.288 193.043 187.288 195.209 185.5 197.5 C 181.723 192.595 177.057 191.429 171.5 194 C 163.95 199.535 158.783 206.702 156 215.5 C 154.902 222.642 156.235 229.309 160 235.5 C 162.469 237.502 164.136 239.836 165 242.5 C 158 249.5 151 256.5 144 263.5 C 136.168 259.133 128.668 259.633 121.5 265 C 116.966 269.199 112.799 273.699 109 278.5 C 106.733 283.896 107.4 288.896 111 293.5 C 114.534 297.369 118.367 300.869 122.5 304 C 125.611 304.612 128.277 303.779 130.5 301.5 C 134.772 307.11 139.438 312.443 144.5 317.5 C 142.053 326.559 145.896 329.766 155.343 330.041 C 157.973 330.077 160.13 331.036 162.5 330 C 167.7 325.135 172.533 319.968 177 314.5 C 178.244 311.436 179.077 308.269 179.5 305 C 178.814 301.316 177.981 297.816 177 294.5 C 183.5 288 190 281.5 196.5 275 C 201.194 277.852 206.194 280.519 211.5 283 C 227.514 285.576 239.348 279.743 247 265.5 C 247.667 263.833 247.667 262.167 247 260.5 C 245.081 258.309 243.747 255.976 243 253.5 C 247.022 249.977 251.189 246.643 255.5 243.5 C 260.152 246.821 264.485 250.487 268.5 254.5 C 263.079 258.768 262.246 263.768 266 269.5 C 271.049 275.601 277.216 280.101 284.5 283 C 295.199 285.706 304.199 283.039 311.5 275 C 312.5 274.333 313.5 274.333 314.5 275 C 321 281.5 327.5 288 334 294.5 C 333.019 297.816 332.186 301.316 331.5 305 C 331.923 308.269 332.756 311.436 334 314.5 C 338.833 320.667 344.333 326.167 350.5 331 C 355.44 332.041 360.106 331.374 364.5 329 C 373.702 319.631 386.171 298.967 395.636 290.003 C 411.925 330.748 352.847 380.093 341.274 376.653 C 339.878 373.462 339.104 361.976 338.5 358.5 C 340.366 352.739 342.532 347.072 345 341.5 C 346.361 336.726 344.861 333.226 340.5 331 C 333.174 330.5 325.841 330.334 318.5 330.5 C 318.666 323.159 318.5 315.826 318 308.5 C 317.167 306.333 315.667 304.833 313.5 304 C 274.5 303.333 235.5 303.333 196.5 304 C 194.951 305.214 193.785 306.714 193 308.5 C 192.5 315.826 192.334 323.159 192.5 330.5 C 185.159 330.334 177.826 330.5 170.5 331 C 166.139 333.226 164.639 336.726 166 341.5 C 168.468 347.072 170.634 352.739 172.5 358.5 C 169.969 365.426 167.636 372.426 165.5 379.5 C 165.556 382.111 166.556 384.278 168.5 386 C 188.744 387.643 209.077 387.976 229.5 387 C 232.333 386.167 234.167 384.333 235 381.5 C 235.5 374.174 235.666 366.841 235.5 359.5 C 248.833 359.5 262.167 359.5 275.5 359.5 C 275.094 367.917 277.816 375.108 279.222 383.357 C 280.477 384.068 281.912 385.138 282.991 386.094 C 290.317 386.594 324.291 383.523 331.632 383.357 C 317.149 398.332 267.038 411.249 244.807 420.039 C 230.572 423.92 207.837 420.358 193.406 417.477 C 193.416 413.143 192.141 412.129 190.5 411 C 181.167 406.667 171.833 402.333 162.5 398 C 158.858 396.93 155.858 397.764 153.5 400.5 C 148.032 401.467 139.043 392.339 138.5 390.5 C 137.797 388.284 136.464 386.451 134.5 385 C 125.833 381 117.167 377 108.5 373 C 104.851 372.037 101.476 372.579 98.458 374.542 C 93.436 375.537 88.625 376.439 83.5 368.5 C 83.5 268.833 83.5 169.167 83.5 69.5 C 92.839 69.667 102.173 69.5 111.5 69 C 114.493 67.842 116.122 65.43 116.462 62.255 C 123.591 62.465 130.59 62.467 136.5 62.366 Z" /></g>
<g><path style="opacity:1" fill="#017195" d="M 394.489 69.5 C 394.5 69.5 394.498 69.5 427.5 69.5 C 427.333 99.169 427.5 128.835 428 158.5 C 428.947 161.739 431.114 163.739 434.5 164.5 C 434.5 170.833 434.5 177.167 434.5 183.5 C 430.504 183.658 428.337 185.865 428 188.5 C 427.667 264.5 427.333 340.5 427 416.5 C 422.985 418.592 418.819 420.259 414.5 421.5 C 414.667 406.496 414.5 391.496 414 376.5 C 411.526 372.681 408.026 371.181 403.5 372 C 394.167 376.333 384.833 380.667 375.5 385 C 374.299 385.903 373.465 387.069 373 388.5 C 372.5 406.497 372.333 424.497 372.5 442.5 C 368.303 443.596 364.303 445.262 360.5 447.5 C 359.667 432.511 359.167 417.511 359 402.5 C 356.459 397.931 352.625 396.431 347.5 398 C 337.924 402.372 328.424 406.872 319 411.5 C 317.858 430.086 317.024 448.752 316.5 467.5 C 312.697 469.738 308.697 471.404 304.5 472.5 C 304.667 457.83 304.5 443.163 304 428.5 C 302.404 424.736 299.571 422.736 295.5 422.5 C 285.733 426.369 276.066 430.536 266.5 435 C 264.622 436.543 263.122 438.376 262 440.5 C 261.833 458.176 261.333 475.843 260.5 493.5 C 257.167 496.167 253.833 496.167 250.5 493.5 C 249.975 475.086 249.142 456.752 248 438.5 C 238.89 433.028 229.39 428.195 219.5 424 C 214.063 422.345 209.897 423.845 207 428.5 C 206.5 443.163 206.333 457.83 206.5 472.5 C 202.303 471.404 198.303 469.738 194.5 467.5 C 193.5 450.179 192.936 432.621 193.269 415.275 C 211.315 418.476 230.85 422.177 262.964 412.369 C 311.872 397.432 351.644 367.784 356.023 365.09 C 378.754 350.592 389.951 318.804 392.5 301.5 C 393.761 257.183 394.821 135.669 394.489 69.5 Z" /></g>
<g><path style="opacity:1" fill="#030303" d="M 393.5,268.5 C 396.498,271.667 399.331,275 402,278.5C 404,282.5 404,286.5 402,290.5C 398.998,294.334 395.831,298 392.5,301.5C 383.035,310.464 373.702,319.631 364.5,329C 360.106,331.374 355.44,332.041 350.5,331C 344.333,326.167 338.833,320.667 334,314.5C 332.756,311.436 331.923,308.269 331.5,305C 332.186,301.316 333.019,297.816 334,294.5C 327.5,288 321,281.5 314.5,275C 313.5,274.333 312.5,274.333 311.5,275C 304.199,283.039 295.199,285.706 284.5,283C 277.216,280.101 271.049,275.601 266,269.5C 262.246,263.768 263.079,258.768 268.5,254.5C 264.485,250.487 260.152,246.821 255.5,243.5C 251.189,246.643 247.022,249.977 243,253.5C 243.747,255.976 245.081,258.309 247,260.5C 247.667,262.167 247.667,263.833 247,265.5C 239.348,279.743 227.514,285.576 211.5,283C 206.194,280.519 201.194,277.852 196.5,275C 190,281.5 183.5,288 177,294.5C 177.981,297.816 178.814,301.316 179.5,305C 179.077,308.269 178.244,311.436 177,314.5C 172.533,319.968 167.7,325.135 162.5,330C 160.13,331.036 157.63,331.536 155,331.5C 145.553,331.225 142.053,326.559 144.5,317.5C 147.741,314.145 151.241,313.811 155,316.5C 158,313.5 161,310.5 164,307.5C 164.52,305.711 164.187,304.044 163,302.5C 154.5,294 146,285.5 137.5,277C 136.271,276.219 134.938,275.719 133.5,275.5C 129.572,277.758 126.238,280.758 123.5,284.5C 126.521,287.686 129.354,291.02 132,294.5C 132.833,297.171 132.333,299.504 130.5,301.5C 128.277,303.779 125.611,304.612 122.5,304C 118.367,300.869 114.534,297.369 111,293.5C 107.4,288.896 106.733,283.896 109,278.5C 112.799,273.699 116.966,269.199 121.5,265C 128.668,259.633 136.168,259.133 144,263.5C 151,256.5 158,249.5 165,242.5C 164.136,239.836 162.469,237.502 160,235.5C 156.235,229.309 154.902,222.642 156,215.5C 158.783,206.702 163.95,199.535 171.5,194C 177.057,191.429 181.723,192.595 185.5,197.5C 187.288,195.209 189.288,193.043 191.5,191C 183.32,184.482 175.487,177.648 168,170.5C 167.333,147.167 167.333,123.833 168,100.5C 168.833,99 170,97.8333 171.5,97C 195.167,96.3333 218.833,96.3333 242.5,97C 246.677,102.008 251.01,106.841 255.5,111.5C 259.99,106.841 264.323,102.008 268.5,97C 292.167,96.3333 315.833,96.3333 339.5,97C 340.667,98.1667 341.833,99.3333 343,100.5C 343.667,123.833 343.667,147.167 343,170.5C 335.513,177.648 327.68,184.482 319.5,191C 321.712,193.043 323.712,195.209 325.5,197.5C 329.277,192.595 333.943,191.429 339.5,194C 344.034,198.199 348.201,202.699 352,207.5C 357.919,220.504 355.752,232.004 345.5,242C 352.667,249.167 359.833,256.333 367,263.5C 377.078,258.454 385.911,260.121 393.5,268.5 Z" /></g>
<g><path style="opacity:1" fill="#d5e5ed" d="M 182.5,111.5 C 200.17,111.333 217.836,111.5 235.5,112C 262.025,143.557 288.192,175.391 314,207.5C 314.667,208.167 314.667,208.833 314,209.5C 310.5,213 307,216.5 303.5,220C 302.833,220.667 302.167,220.667 301.5,220C 274.833,193.333 248.167,166.667 221.5,140C 217.22,137.523 213.72,138.356 211,142.5C 210.21,145.634 210.543,148.634 212,151.5C 238.333,177.833 264.667,204.167 291,230.5C 291.667,231.167 291.667,231.833 291,232.5C 287.5,236 284,239.5 280.5,243C 279.833,243.667 279.167,243.667 278.5,243C 246.958,216.456 215.124,190.289 183,164.5C 182.5,146.836 182.333,129.17 182.5,111.5 Z" /></g>
<g><path style="opacity:1" fill="#b8d4e3" d="M 275.5 111.5 C 293.167 111.5 310.833 111.5 328.5 111.5 C 328.667 129.17 328.5 146.836 328 164.5 C 322.258 169.287 316.425 173.953 310.5 178.5 C 304.392 171.801 298.392 164.968 292.5 158 C 295.372 155.463 297.872 152.63 300 149.5 C 301.378 141.878 298.211 138.378 290.5 139 C 288.317 141.35 285.984 143.517 283.5 145.5 C 277.441 139.061 270.717 132.172 265.109 125.277 C 275.267 111.927 265.509 124.946 275.5 111.5 Z" /></g>
<g><path style="opacity:1" fill="#b0cbd9" d="M 202.5,200.5 C 207.8,203.831 212.8,207.664 217.5,212C 214.651,215.016 211.651,217.85 208.5,220.5C 204.167,216.833 200.167,212.833 196.5,208.5C 198.509,205.804 200.509,203.137 202.5,200.5 Z" /></g>
<g><path style="opacity:1" fill="#fbc043" d="M 175.5,210.5 C 193.748,227.246 211.582,244.579 229,262.5C 229.617,263.449 229.451,264.282 228.5,265C 223.569,268.733 218.236,269.4 212.5,267C 199.333,253.833 186.167,240.667 173,227.5C 169.277,221.173 170.11,215.506 175.5,210.5 Z" /></g>
<g><path style="opacity:1" fill="#fbc043" d="M 333.5,210.5 C 340.734,214.525 342.234,220.192 338,227.5C 324.833,240.667 311.667,253.833 298.5,267C 292.691,269.488 287.358,268.821 282.5,265C 281.549,264.282 281.383,263.449 282,262.5C 299.368,245.299 316.535,227.965 333.5,210.5 Z" /></g>
<g><path style="opacity:1" fill="#b3cedd" d="M 228.5,221.5 C 233.652,225.251 238.652,229.251 243.5,233.5C 239.5,236.833 235.5,240.167 231.5,243.5C 227.167,239.833 223.167,235.833 219.5,231.5C 222.522,228.147 225.522,224.813 228.5,221.5 Z" /></g>
<g><path style="opacity:1" fill="#00bcf5" d="M 175.5,253.5 C 180.189,255.347 183.856,258.514 186.5,263C 180.044,270.457 173.211,277.624 166,284.5C 162.5,281 159,277.5 155.5,274C 162.369,267.298 169.036,260.465 175.5,253.5 Z" /></g>
<g><path style="opacity:1" fill="#f84553" d="M 325 264.5 C 325.672 260.462 334.385 253.607 335.333 254.09 C 342 260.757 348.833 267.333 355.5 274 C 352 277.5 348.5 281 345 284.5 C 338.333 277.833 331.667 271.167 325 264.5 Z" /></g>
<g><path style="opacity:1" fill="#f9be42" d="M 144.5,317.5 C 139.438,312.443 134.772,307.11 130.5,301.5C 132.333,299.504 132.833,297.171 132,294.5C 129.354,291.02 126.521,287.686 123.5,284.5C 126.238,280.758 129.572,277.758 133.5,275.5C 134.938,275.719 136.271,276.219 137.5,277C 146,285.5 154.5,294 163,302.5C 164.187,304.044 164.52,305.711 164,307.5C 161,310.5 158,313.5 155,316.5C 151.241,313.811 147.741,314.145 144.5,317.5 Z" /></g>
<g><path style="opacity:1" fill="#f5bb41" d="M 374.5,275.5 C 380.134,276.444 384.467,279.444 387.5,284.5C 377.181,295.319 366.681,305.986 356,316.5C 353,313.5 350,310.5 347,307.5C 346.333,306.5 346.333,305.5 347,304.5C 356.006,294.662 365.172,284.995 374.5,275.5 Z" /></g>
<g><path style="opacity:1" fill="#020302" d="M 341.5 368.5 C 343.619 371.855 344.952 375.521 345.5 379.5 C 345.451 383.104 343.784 385.604 340.5 387 C 327.838 387.5 315.171 387.667 302.5 387.5 C 295.159 387.666 279.242 387.827 277.919 386.946 C 275.646 385.856 275.094 367.917 275.5 359.5 C 262.167 359.5 248.833 359.5 235.5 359.5 C 235.666 366.841 235.5 374.174 235 381.5 C 234.167 384.333 232.333 386.167 229.5 387 C 209.077 387.976 188.744 387.643 168.5 386 C 166.556 384.278 165.556 382.111 165.5 379.5 C 167.636 372.426 169.969 365.426 172.5 358.5 C 170.634 352.739 168.468 347.072 166 341.5 C 164.639 336.726 166.139 333.226 170.5 331 C 177.826 330.5 185.159 330.334 192.5 330.5 C 192.334 323.159 192.5 315.826 193 308.5 C 193.785 306.714 194.951 305.214 196.5 304 C 235.5 303.333 274.5 303.333 313.5 304 C 315.667 304.833 317.167 306.333 318 308.5 C 318.5 315.826 318.666 323.159 318.5 330.5 C 325.841 330.334 333.174 330.5 340.5 331 C 344.861 333.226 346.361 336.726 345 341.5 C 342.532 347.072 340.366 352.739 338.5 358.5 C 339.104 361.976 340.104 365.309 341.5 368.5 Z" /></g>
<g><path style="opacity:1" fill="#fdc143" d="M 207.5,318.5 C 239.5,318.5 271.5,318.5 303.5,318.5C 303.5,327.167 303.5,335.833 303.5,344.5C 271.5,344.5 239.5,344.5 207.5,344.5C 207.5,335.833 207.5,327.167 207.5,318.5 Z" /></g>
<g><path style="opacity:1" fill="#f4ab34" d="M 184.5,345.5 C 187.167,345.5 189.833,345.5 192.5,345.5C 192.335,348.518 192.502,351.518 193,354.5C 193.465,355.931 194.299,357.097 195.5,358C 203.723,359.438 212.057,359.938 220.5,359.5C 220.5,363.833 220.5,368.167 220.5,372.5C 208.5,372.5 196.5,372.5 184.5,372.5C 185.691,367.953 187.025,363.453 188.5,359C 187.265,354.462 185.932,349.962 184.5,345.5 Z" /></g>
<g><path style="opacity:1" fill="#f4ab34" d="M 318.5,345.5 C 321.167,345.5 323.833,345.5 326.5,345.5C 325.068,349.962 323.735,354.462 322.5,359C 323.975,363.453 325.309,367.953 326.5,372.5C 314.5,372.5 302.5,372.5 290.5,372.5C 290.5,368.167 290.5,363.833 290.5,359.5C 298.174,359.666 305.841,359.5 313.5,359C 315.667,358.167 317.167,356.667 318,354.5C 318.498,351.518 318.665,348.518 318.5,345.5 Z" /></g>
<g><path style="opacity:1" fill="#017196" d="M 83.5,368.5 C 88.3476,370.893 93.3476,372.893 98.5,374.5C 97.3995,375.605 96.7329,376.938 96.5,378.5C 95.8333,392.833 95.1667,407.167 94.5,421.5C 90.8836,420.125 87.3836,418.459 84,416.5C 83.5001,400.503 83.3334,384.503 83.5,368.5 Z" /></g>
<g><path style="opacity:1" fill="#016e92" d="M 138.5 390.5 C 139.234 391.878 149.188 398.679 153.5 400.5 C 153.217 401.289 151.333 432.511 150.5 447.5 C 146.952 445.559 143.286 443.893 139.5 442.5 C 138.5 425.179 138.167 407.846 138.5 390.5 Z" /></g>
</svg>